<?xml version="1.0" encoding="UTF-8"?>
<svg id="Layer_1" data-name="Layer 1" xmlns="http://www.w3.org/2000/svg" viewBox="0 0 612 792">
  <defs>
    <style>
      .cls-1 {
        stroke: #010101;
      }

      .cls-1, .cls-2 {
        stroke-miterlimit: 10;
      }

      .cls-1, .cls-3 {
        fill: #fff;
      }

      .cls-2 {
        fill: none;
        stroke: #000;
        stroke-width: 8px;
      }

      .cls-4 {
        fill: #621312;
      }

      .cls-4, .cls-5, .cls-6, .cls-7, .cls-8, .cls-9, .cls-10, .cls-11, .cls-12, .cls-13, .cls-14, .cls-15, .cls-16, .cls-17, .cls-18, .cls-3, .cls-19, .cls-20, .cls-21, .cls-22 {
        stroke-width: 0px;
      }

      .cls-5 {
        fill: #4a0f11;
      }

      .cls-6 {
        fill: #79170e;
      }

      .cls-7 {
        fill: #483d38;
      }

      .cls-8 {
        fill: #463b37;
      }

      .cls-9 {
        fill: #a51815;
      }

      .cls-10 {
        fill: #33a938;
      }

      .cls-11 {
        fill: #433834;
      }

      .cls-12 {
        fill: #1e1e1c;
      }

      .cls-13 {
        fill: #c51517;
      }

      .cls-14 {
        fill: #332a25;
      }

      .cls-15 {
        fill: #a21814;
      }

      .cls-16 {
        fill: #74160d;
      }

      .cls-17 {
        fill: #66140f;
      }

      .cls-18 {
        fill: #f1efef;
      }

      .cls-19 {
        fill: #030605;
      }

      .cls-20 {
        fill: #030100;
      }

      .cls-21 {
        fill: #00582c;
      }

      .cls-22 {
        fill: #010101;
      }
    </style>
  </defs>
  <g>
    <polygon class="cls-15" points="368.1 164.44 334.1 164.44 309.1 169.44 303.1 188.44 311.1 204.44 328.1 217.44 345.35 222.44 356.1 228.44 352.1 239.44 359.1 258.44 368.1 282.44 378.1 300.44 387.6 314.44 450.1 321.44 467.1 326.44 481.1 318.44 494.1 317.44 503.1 326.44 512.1 321.44 523.1 308.44 507.1 301.44 487.1 298.44 411.59 282.44 405.33 254.91 402.1 242.94 392.15 217.4 394.1 202.44 400.1 192.44 413.1 192.44 434.3 218.53 437.1 202.44 443.1 190.44 449 185.93 455.43 206.85 458.62 189.03 456.1 169.44 448.1 159.44 437.1 158.44 424.1 158.44 368.1 164.44"/>
    <path class="cls-1" d="m406.94,128.83c-5.27,2.37-25.82,10.41-32.53,13.03-1.35.52-2.35,1.67-2.7,3.07h0c-.45,1.8.26,3.7,1.79,4.76l16.76,11.57c.21.14.43.27.66.38l15.95,7.4c.59.27,1.23.41,1.88.41h18.75c1.43,0,2.77-.68,3.61-1.84l5.18-7.12c.92-1.27,2.45-1.96,4.01-1.82l6.59.6c1.21.11,2.32.71,3.08,1.66l1.96,2.45c2.15,2.69,6.41,2.03,7.64-1.19l1.55-4.04c.42-1.1.39-2.31-.08-3.39l-5.89-13.47c-.25-.56-.61-1.07-1.06-1.49l-11.03-10.18c-.82-.76-1.9-1.18-3.02-1.18h-31.27c-.63,0-1.24.13-1.82.39Z"/>
    <path class="cls-22" d="m373.06,164.01l-52.36-3.16-60.28,10.16-47.81,26.45-28.4,24.96-11.54,21.74v11.42c0,4.49.94,8.94,2.76,13.05l12.66,28.64,29.65,42.37,10.26,8.04,34.89-17.67,21.68-5.91-19.74-24.05,17.13,9.72,9.05-.12,21.45-24.02,10.91-19.02.98-9.95,34.18-3.05-1-24.57-6.39-4.77-11.97-8.66c-5.75-4.16-9.19-10.79-9.28-17.89l-.03-2.39c-.04-2.89.84-5.71,2.51-8.07l4.99-7.04c1.16-1.63,2.71-2.96,4.5-3.85l13.32-6.61c.56-.28,1.14-.5,1.75-.67l16.11-5.08Z"/>
    <path class="cls-13" d="m201.88,213.27l-.78,2.1c-.47,1.27-2.17,1.48-2.95.38l-36.54-52.03s-.04-.06-.06-.09l-24.17-30.12s-.07-.08-.11-.12l-25.2-25.77c-3.43-3.51-8.62-4.67-13.22-2.95l-19.93,7.45c-1.81.68-3.14-1.73-1.61-2.91l16.13-12.43c7.02-5.41,16.97-4.75,23.22,1.54l27.19,27.38"/>
    <polygon class="cls-14" points="218.75 265.38 226.59 274.78 267.02 301.47 228.69 274.32 218.75 265.38"/>
    <polygon class="cls-9" points="226.56 347.08 250.09 392.29 226.27 419.08 218.09 454.06 206.18 477.13 198.74 494.25 192.78 501.69 215.11 506.9 221.44 496.48 246.37 456.29 264.23 428.76 276.88 416.85 280.6 407.92 292.45 385.84 297.72 364.01 283.58 323.07 261.25 327.54 226.56 347.08"/>
    <polygon class="cls-22" points="435.48 166.72 442.29 172.57 447.51 173.84 456.77 169.44 450.36 162.92 441.18 160.7 435.48 161.59 435.48 166.72"/>
    <polygon class="cls-22" points="442.35 192.71 427.67 182.26 429.62 170.84 432.21 176.08 435.01 181.77 442.35 192.71"/>
    <polyline class="cls-3" points="430.77 179.33 434.3 180.34 432.21 176.08"/>
    <path class="cls-7" d="m318.85,253.38l-40.37-31.02s-4.93-2.27-2.54,1.54l42.57,30.65s.63,1.19.63,1.19l.97-.83s-1.25-1.52-1.26-1.53Z"/>
    <polygon class="cls-18" points="449.4 164.01 447.85 164.49 453.02 166.91 449.4 164.01"/>
    <polygon class="cls-20" points="439.96 139.31 437.41 141.05 432.23 140.18 430.06 138.06 436.59 138.06 439.96 139.31"/>
    <polygon class="cls-20" points="421.48 134.95 418.93 136.69 413.75 135.82 411.59 133.7 418.12 133.7 421.48 134.95"/>
    <polygon class="cls-20" points="451.98 137.87 450.44 139.54 447.33 138.7 446.03 136.67 449.96 136.67 451.98 137.87"/>
    <polygon class="cls-17" points="294.89 370.25 282.39 394.4 278.48 406.83 273.89 419.25 283.08 399.51 284.39 394.75 288.19 386.39 293.64 376.85 297.72 368.33 294.89 370.25"/>
    <path class="cls-16" d="m77.83,109.16l-2.15-8.8c-.29-1.19-1.1-2.17-2.21-2.68l-11.55-5.33c-1.46-.67-3.18-.41-4.37.67l-3.79,3.45c-.58.53-1,1.22-1.19,1.99l-3.21,12.81c-.08.32-.12.65-.12.97v24.69c0,2.5,2.27,4.39,4.73,3.93l40.17-7.46c1.68-.31,2.98-1.66,3.23-3.36l.77-5.3c.19-1.34-.3-2.68-1.31-3.57l-8.04-7.12c-.57-.5-1.26-.83-2.01-.95l-5.72-.94c-1.58-.26-2.86-1.44-3.24-3Z"/>
    <polygon class="cls-19" points="355.54 487.85 353.3 491.69 372.97 500.26 355.54 487.85"/>
    <polygon class="cls-5" points="351.44 481.4 354.79 485.5 358.27 486.99 359.63 488.52 359.63 490.09 358.27 488.23 356.16 486.99 352.93 484.75 351.44 481.4"/>
    <polygon class="cls-19" points="357.38 484.14 367.56 487.93 359.14 485.75 368.05 490.96 358.72 486.75 368.23 492.48 361.84 490.09 360.7 489.53 357.3 486.41 356.43 485.75 357.38 484.14"/>
    <polygon class="cls-4" points="404.3 281.27 392.03 277.72 402.99 282.44 411.42 282.67 404.3 281.27"/>
    <polygon class="cls-4" points="358.53 254.26 367.42 273.66 371.88 284.58 380.1 299.02 387.03 309.36 388.55 313.11 387.6 314.44 377.05 298.91 370.75 287.21 368.1 282.44 365.54 275.89 361.78 265.91 358.16 255.89 357.56 254.26 358.53 254.26"/>
    <polygon class="cls-4" points="349.59 216.44 354.09 227.12 357.53 229.69 349.59 216.44"/>
    <polygon class="cls-4" points="409.46 175.3 413.1 192.44 421.49 202.77 409.46 175.3"/>
    <polyline class="cls-9" points="190.54 514.15 190.54 507.49 194.77 498.53 197.9 496.86 206.18 498.32 211.52 499.57 214.09 502.49 221.45 512.9 229.73 521.44 243.53 537.47 246.11 542.05 251.81 545.59 251.81 549.34 251.81 552.68 249.42 553.72 245.56 553.72 240.22 551.63 233.97 547.26 229.18 543.72 226.05 538.72 222.74 533.93 217.96 531.02 211.33 529.35 204.34 527.89 195.51 523.94 192.01 518.31"/>
    <polyline class="cls-19" points="245.25 550.74 246.55 546.03 255.67 548.39 251.63 549.17 254.76 550.74 251.63 552.31 254.89 552.31 253.97 553.72 245.25 552.46 245.25 549.17"/>
    <polyline class="cls-19" points="248.48 544.75 262.7 546.03 251.63 546.83 247.86 546.83"/>
    <polygon class="cls-16" points="357.56 284.35 378.88 304.47 380.56 314.44 380.56 328.29 381.99 325.03 382.89 318.42 382.89 310.96 382.89 304.25 373.06 293.6 364.25 286.5 359.63 283.2 357.56 284.35"/>
    <polygon class="cls-16" points="328.39 332.25 348.07 332.25 352.68 333.59 334.84 333.59 328.39 332.25"/>
  </g>
  <path class="cls-6" d="m100.62,104.12l1.61-1.02c2.16-.76,4.69-.88,6.13.89l2.09,2.23c.43.53-1.05-.97-1.73-1.04l-2.11-.74c-1.6-.96-6.77-.05-6-.32Z"/>
  <path class="cls-10" d="m321.62,160.71l-24.42,26.11c-.87.93-5.13,10.72-5.13,12v6.66c0,.96.27,1.89.79,2.7l14.58,24.43c.77,1.2,1.49,2.14,1.11,3.51h0c-.96,3.44,3.54,12.06.68,9.88l-19.29-14.82c-.44-.33-.76-.36-1.07-.82l-10.19-16.77c-.27-.41-.49-.85-.63-1.31l-4.06-13.01c-.44-1.4-.23-2.93.56-4.17l9.44-15.45c.39-.62,8.86-8.09,8.86-8.09l10.99-7.86"/>
  <g>
    <ellipse class="cls-2" cx="482.43" cy="486.16" rx="115.15" ry="79.09"/>
    <ellipse class="cls-11" cx="482.43" cy="489.5" rx="22.44" ry="14.74"/>
    <polyline class="cls-11" points="509.74 415.82 485.83 476.51 493.02 476.51 510.77 416.35"/>
    <polygon class="cls-11" points="522.95 419.32 493.02 476.51 497.47 478.57 522.95 419.32"/>
    <polygon class="cls-11" points="536.35 424.07 499.93 480.29 502.14 482.46 538.59 424.07 536.35 424.07"/>
    <polygon class="cls-11" points="503.47 484.41 566.41 442.08 568.44 443.55 503.47 484.41"/>
    <polygon class="cls-11" points="504.56 487.13 586.72 471.39 588.14 474.76 504.87 489.5 504.56 487.13"/>
    <polygon class="cls-11" points="504.56 493 587.12 497.92 586.11 501.84 504.56 493"/>
    <polygon class="cls-11" points="484.36 504.25 482.43 558.33 494.31 558.33 484.36 504.25"/>
    <polygon class="cls-11" points="513.53 555.33 493.02 502.5 498.3 499.93 560.24 536.29 550.6 542.15 538.59 547.94 523.78 553.07 513.53 555.33"/>
    <polyline class="cls-11" points="472.13 502.6 441 552.91 432.62 550.43 470.16 501.84 392.91 525.17 460.99 493.85"/>
    <polygon class="cls-11" points="459.99 489.5 378.02 501.17 376.13 493.85 459.99 489.5"/>
    <polygon class="cls-11" points="377.62 473.38 464.07 481.04 447.17 417.87 437.43 420.67 425.75 424.93 413.09 430.99 401.83 438.61 392.91 446.16 385.69 454.54 381.1 462.72 377.62 469.56 376.13 472.82 377.62 473.38"/>
    <polygon class="cls-11" points="470.79 476.51 459.99 465.8 464.07 481.04 470.79 476.51"/>
    <polygon class="cls-11" points="478.71 474.76 473.65 413.72 485.83 412.83 478.71 474.76"/>
    <ellipse class="cls-2" cx="129.25" cy="484.41" rx="115.15" ry="79.09"/>
    <ellipse class="cls-11" cx="129.25" cy="487.76" rx="22.44" ry="14.74"/>
    <polyline class="cls-11" points="156.56 414.07 132.64 474.76 139.84 474.76 157.59 414.61"/>
    <polygon class="cls-11" points="169.77 417.57 139.84 474.76 144.29 476.83 169.77 417.57"/>
    <polygon class="cls-11" points="183.17 422.32 146.75 478.54 148.96 480.71 185.4 422.32 183.17 422.32"/>
    <polygon class="cls-11" points="150.29 482.66 213.23 440.33 215.26 441.81 150.29 482.66"/>
    <polygon class="cls-11" points="151.38 485.38 233.54 469.64 234.96 473.01 151.69 487.76 151.38 485.38"/>
    <polygon class="cls-11" points="151.38 491.26 233.94 496.17 232.93 500.1 151.38 491.26"/>
    <polygon class="cls-11" points="131.18 502.5 129.25 556.59 141.13 556.59 131.18 502.5"/>
    <polygon class="cls-11" points="160.35 553.58 139.84 500.75 145.12 498.18 207.05 534.54 197.42 540.4 185.4 546.2 170.6 551.32 160.35 553.58"/>
    <polyline class="cls-11" points="118.95 500.85 87.82 551.17 79.44 548.68 116.98 500.1 39.73 523.42 107.8 492.11"/>
    <polygon class="cls-11" points="106.81 487.76 24.84 499.42 22.95 492.11 106.81 487.76"/>
    <polygon class="cls-11" points="24.44 471.63 110.88 479.29 93.99 416.12 84.25 418.93 72.57 423.19 59.91 429.24 48.64 436.87 39.73 444.42 32.51 452.79 27.92 460.98 24.44 467.82 22.95 471.07 24.44 471.63"/>
    <polygon class="cls-11" points="117.61 474.76 106.81 464.06 110.88 479.29 117.61 474.76"/>
    <polygon class="cls-11" points="125.53 473.01 120.47 411.97 132.64 411.08 125.53 473.01"/>
    <polygon class="cls-21" points="219.86 360.8 231.42 356.67 262.71 458.11 251.83 460.47 232.1 405.62 227.96 388.19 136.6 486.24 126.67 485.25 219.86 360.8"/>
    <polygon class="cls-21" points="434.81 355.49 442.97 381.44 278.7 503.53 131.43 495.27 153.84 486.24 254.21 486.24 268.83 485.25 329.33 435.28 413.04 371.33 236.2 372.15 231.42 356.67 434.81 355.49"/>
    <polyline class="cls-12" points="409.06 317.98 497.49 316.8 501.67 318.93 503.47 321.69 503.47 323.6 497.8 325.78 492.39 327.12 494.81 335.66 494.93 341.79 493.34 346.71 487.87 352.66 479.44 357.17 470.89 360.01 464.78 360.46 461.98 358.52 461.98 356.04 461.98 353.78 467.72 351.56 474.41 350.12 479.31 348.27 482.9 345.51 484.21 342.22 484.57 339.46 484.57 335.64 481.5 333.27 480.45 331.52 477.19 329.85 474.25 328.67 471.64 326.69 467.56 325.9 465.75 326.31 462.89 334.99 460.08 340.47 451.37 346.42 444.77 348.9 438.68 349.92 436.27 349.83 435.27 351.81 436.11 353.96 434.24 357.24 431.83 358.67 423.49 359.83 416.88 360.44 417.67 355.1 418.75 349.46 416.91 343.56 413.57 336.19 410.62 329.28 409.06 322.48 408.13 319.46"/>
    <polygon class="cls-12" points="442.97 381.44 429.5 391.45 473.65 491.26 478.17 495.33 482.43 495.33 485.83 493.85 485.83 489.5 442.97 381.44"/>
  </g>
  <polyline class="cls-9" points="267.02 442.11 267.02 433.3 274.3 418.45 278.04 419.25 290.43 421.18 302.75 424.57 304.26 428.67 313.29 440.46 325.69 451.75 346.34 472.96 350.2 479.02 358.74 483.7 358.74 488.66 358.74 493.07 355.16 494.44 349.37 494.44 341.39 491.69 332.02 485.9 324.86 481.22 320.18 474.61 315.22 468.28 308.06 464.42 298.14 462.22 287.68 460.29 274.46 455.06 269.22 447.62"/>
  <path class="cls-9" d="m287.58,305.68l15.86-12.08c.3-.23.56-.5.78-.81l11.34-16.06c.22-.32.39-.66.51-1.03l3.89-12.5c.11-.36.17-.73.17-1.1h0c0-3.01,3.4-4.75,5.84-3l44.62,31.93c.2.15.39.31.56.5l10.76,11.66c.63.68.98,1.58.98,2.51v15.12c0,.29-.03.58-.1.86l-4.68,19.67c-.14.59-.43,1.14-.83,1.6l-15.25,17.16c-.09.1-.18.19-.28.28l-21.71,19.74c-.09.08-.18.17-.27.27l-25.75,28.72c-.08.09-.16.19-.24.29l-15.65,21.52c-.16.21-.33.41-.53.59l-7.65,6.8c-.68.6-1.55.93-2.45.93h-9.9c-2.04,0-3.69-1.65-3.69-3.69v-15.41c4.15-.9.14-1.17.41-1.7l14.43-27.9c.11-.2.19-.42.26-.64l5.74-19.12c.11-.36.27-.71.49-1.02l8.13-13.18c.35-.52,4.84-5.49,5.4-5.77l15.82-13.14c.55-.27-5.5,7.81-5.15,7.31l6.5-9.24c1.3-1.84.66-4.41-1.35-5.42l-36.42-18.41c-2.43-1.23-2.74-4.58-.57-6.24Z"/>
  <ellipse class="cls-8" cx="258.33" cy="481.4" rx="29.09" ry="23.7"/>
</svg>