<?xml version="1.0" encoding="UTF-8"?>
<svg id="Layer_1" data-name="Layer 1" xmlns="http://www.w3.org/2000/svg" viewBox="0 0 729.8 498.03">
  <defs>
    <style>
      .cls-1 {
        fill: none;
        stroke: #000;
        stroke-miterlimit: 10;
        stroke-width: 8px;
      }

      .cls-2 {
        fill: #fac49f;
      }

      .cls-2, .cls-3, .cls-4, .cls-5, .cls-6, .cls-7, .cls-8, .cls-9, .cls-10, .cls-11, .cls-12, .cls-13, .cls-14, .cls-15 {
        stroke-width: 0px;
      }

      .cls-3 {
        fill: #4b3116;
      }

      .cls-4 {
        fill: #893712;
      }

      .cls-5 {
        fill: #1c2021;
      }

      .cls-6 {
        fill: #0f0c0c;
      }

      .cls-7 {
        fill: #403631;
      }

      .cls-8 {
        fill: #433834;
      }

      .cls-9 {
        fill: #433934;
      }

      .cls-10 {
        fill: #1f78be;
      }

      .cls-11 {
        fill: #1e1e1c;
      }

      .cls-12 {
        fill: #9d6015;
      }

      .cls-13 {
        fill: #fff;
      }

      .cls-14 {
        fill: #f18871;
      }

      .cls-15 {
        fill: #010101;
      }
    </style>
  </defs>
  <g>
    <g>
      <g>
        <path class="cls-5" d="m251.7,212c2.9,2.36,5.32,5.36,8.49,7.43h.35c5.13,3.29,14.86.2,18.4,6.01.75,2.51-5.82,4.68-8.67,4.95-2.37.23-8.32-.65-10.61-1.42-5.05-1.69-10.89-8.02-11.5-3.54-4.63-.86-11.23-.95-15.57-2.12-12.27-3.32-3.99-16.52,4.42-17.69,7.54-1.05,10.36,2.85,14.68,6.37Z"/>
        <path class="cls-5" d="m278.94,225.44c3.22,5.29-7.44,9.03-14.68,8.14-5.62-.69-10.79-5.35-15.74-7.78l-.35-.35c.61-4.49,6.45,1.85,11.5,3.54,2.29.77,8.24,1.64,10.61,1.42,2.84-.27,9.42-2.45,8.67-4.95Z"/>
      </g>
      <g>
        <path class="cls-5" d="m183.87,238.91c1.94,1.3,6.8,5.7,7.08,7.78.28,2.14-1.19,5.52-2.12,7.43-1.75.4-8.73,4.74-7.96,6.37-6.16,1.74-1.39-1.81-2.83-2.83-17.32.49-34.8.35-51.65-4.25-2.51-.69-8.96-2.63-8.31-3.54,5.41-1.73,10.66-3.53,15.92-5.66,16.47,2.27,34.39,1.27,49.88-5.31Z"/>
        <path class="cls-6" d="m218.6,231.96c3.93.86,13.77.04,14.86,5.31.13.64-.85,3.38.18,4.6l10.44.71c-4.3.32-8.6.57-12.91.71-4.33,4.34-8.65,3.79-13.44.35-8.27,2.11-16.9,2.18-25.29,3.18l24.94-14.86h1.24Z"/>
      </g>
    </g>
    <path class="cls-3" d="m116.83,247.15l-7.43,2.12-1.77-.18,2.38-2.58-.61-1.14h-2.83v-3.73l.35-1.22-4.25.05-1.05-.23,3.45-3.52v-2.5s2.56-1.95,2.56-1.95l1.41-1.33-2.47-.92h-3.72l3.01-3.05.35-1.42-2.83.38-1.77.33-2.12-2.65,2.12-1.77,1.42-1.59,3.45.1.37-2.25-4.62.48,6.01-6.01-4.87.25,1.9-2.79-3.67,1,7.08-7.59-6.45,2.73,3.98-2.9,2.83-2.48-5.66,1.42,7.08-3.71-5.25,1.08,3.48-2.85-6.02-.02,6.81-5.21-7.15,1.34,8.24-7.26-5.61,1.07,5.75-5.4-4.33,1.16,6.38-4.07h-6.38l8.31-4.77-7.22.72,6.74-2.86-1.96-2.28,5.31-4.07-1.4-1.47,3.17-5.25-.9-2.12,2.67-2.12-2.35-1.06,9.08-4.95-3.89-.88,4.95-5.48,8.87-.35-7.11-.71,1.59-4.53,2.3-1.83,8.31,2.12-3.89-3.89,3.71-4.6h6.9l-3.89-2.12,2.83-.71.53-2.3,4.42-2.65,5.54,1.66-3.07-2.72h7.48s1.48-1.66,1.48-1.66l-3.65-2.58,4.03-.48-2.44-.94,8.54.61-3.57-2.83,4.94-.78.35-1.42,4.22.11-2.1-2.76,8.31,1.77-2.3-2.65,6.37.53-1.77-2.48,3.81,2.04-.63-2.39,1.89-.95,7.31,3.12-2.12-4.12,5.66-.88,3.59,4.22-1.29-4.58,5.48,4.6-2.12-5.66,2.48.12,4.24.77,8.43-.83,10.42,1.37,11.4,2.83,9.78,2.17,10.79,2.94,8.9,3.49,3.91,2.44,2.97,1.95,1.77,4.35-.39,7.43-1.65,9.99.54,5.45-19.05-.96-7.45-1.48c-.87-.17-1.66-.62-2.25-1.28l-2.34-2.62c-.52-.58-1.21-.98-1.97-1.14l-4.94-1.04c-.61-.13-1.24-.15-1.86-.06l-4.87.7c-1.06.15-2.05.62-2.83,1.35l-2,1.84c-.31.29-.55.64-.69,1.04l-.84,2.29c-.45,1.22-.59,2.52-.41,3.81l.51,3.67c.01.08.03.16.04.24l1.41,6.82c.14.66.34,1.31.61,1.93l1.34,3.07-16.98,18.75-26.21,26.86-43.21,32.45-28.59,12.86h-7.23l5.66-5.31Z"/>
    <path class="cls-2" d="m139.22,242.09l37.8-26.34c.07-.05.14-.11.21-.17l31.86-29.24s.08-.07.11-.11l22.81-24.52c.46-.5,1.15-.73,1.81-.61l4.47-.73c.56.1,1.48-.48,1.93-.82l5.72-3.34s1.33-1,1.35-1.03l5.59-5.65c.29-.25,1.61-2.11,1.72-2.48l2.06-4.61c.25-.81,2.28-1.49,3.12-1.53l18.83-.84c.9-.04,1.72.53,2,1.4l2.68,8.5c.11.34.31.65.58.89l12.67,11.3c.12.11.26.21.41.28l8.76,4.55c.13.07.27.12.42.16l11.43,2.96c.18.05.37.07.56.06l7.97-.22c.25,0,.5.03.73.12l2.05.73c.64.23,1.12.77,1.28,1.44l.45,1.97c.1.44.05.9-.15,1.31l-1.92,4.01c-.22.46-.6.81-1.07,1l-7.55,2.97c-.08.03-.16.06-.25.08l-4.06,1.01s-.08.02-.12.04l-8.55,2.73c-.2.06-.41.1-.62.1l-6.17-.02c-.17,0-.34.02-.51.06l-2.49.64h0c1.87.76,1.57,3.49-.42,3.83l-10.15,1.71c-.1.02-.21.04-.31.08l-12.5,4.21c-.17.06-.34.14-.49.24l-13.09,8.91-10.27,6.5-7.08,4.95-14.21,8.9s-.07.04-.11.06l-15.68,8.53s-.1.05-.14.09l-18.88,12.4c-.72.48-1.67.43-2.35-.11l-4.94-3.96c-.31-.25-.53-.58-.65-.95l-.54-1.7c-.34-1.08-1.51-1.66-2.58-1.28l-5.94,2.12c-.11.04-.21.07-.32.09l-7.62,1.35-6.98,1.52c-.12.03-.25.04-.37.05l-7.95.22-11.21.06c-.07,0-.15,0-.22-.01l-1.99-.21c-1.84-.2-2.45-2.57-.93-3.63Z"/>
    <path class="cls-9" d="m302.59,190.69c-.49.25-1,.42-1.54.51l-.91.15-3.41.57-2.76.46-2.87.48c-.26.04-.53.03-.79-.04l-1.89-.5-1.56-.48c-.21-.06-.43-.09-.65-.08l-2.87.15-4.03.26c-.11,0-.22,0-.34,0l-2.94-.34-.7-.49-.28-.67v-.36s.58-.98.58-.98l.31-.44,3.07-.39s.07,0,.1-.01l8.42-.61,8.18-.58,8.3-.71,6.16-.72.14-.02,5.24-1.26c.13-.03.45-.21.58-.27l.75-.25c.2-.09.53-.21.69-.36l-.11.11c.47-.46,1.14-.63,1.77-.47l.28.27-.03.61c-.12.12-.26.22-.41.3l-1.84.99c-.12.07-.26.12-.39.16l-1.57.43s-.09.02-.13.03l-2.06.41c-.06.01-.11.03-.17.04l-1.04.31c-.09.03-.19.05-.28.06l-1.69.23-2.15.25-1.82.28c-.1.01-.19.02-.29.02h-1.63s-.08,0-.11,0l-2.22.13-1.96.06s-.09,0-.14,0l-2.06.22.64.17,1.08.44.89.36.91.39.87.19c.18.04.35.11.51.2l.22.39-.07.36Z"/>
    <path class="cls-4" d="m259.62,140.69c-1.06,4.78-9.06,16.85-25.01,19.83-5.59,1.04-4.24-10.2-6.04-20.98-.81-4.85,3.45-12.15,9.03-10.92s23.08,7.29,22.02,12.07Z"/>
    <path class="cls-14" d="m257.86,142.97c-1.36,2.99-8.84,13.02-20.5,14.57-4.56.61,4.04-10.86,2.57-18.14-.66-3.28,2.08-6.4,6.19-5.48,4.11.91,13.74,4.67,11.74,9.05Z"/>
    <circle class="cls-15" cx="279.54" cy="167.77" r="5.9"/>
    <path class="cls-13" d="m283.43,165.75c0-.89-1.88-2.55-3.02-2.55s-.7,1.47-.09,2.12c.4.43.62,1.07,1.85,1.02,1.14-.04,1.26.3,1.26-.59Z"/>
    <path class="cls-13" d="m278.97,165.19c.2-.92.73-.05,1.02.35s.79.81.51,1.01-1.23.11-1.51-.28-.09-.74-.02-1.07Z"/>
    <polygon class="cls-6" points="319.53 183.63 317.35 180.08 316.44 177.68 316.01 175.28 316.01 172.92 316.3 171.39 317.24 169.86 319.17 170.06 320.33 170.03 322.54 169.97 324.51 169.86 325.81 169.86 327.1 169.98 328.08 170.33 329.15 170.71 329.78 171.08 330.28 171.74 330.92 173.21 330.87 174.12 330.92 174.75 330.73 175.43 330.32 176.28 329.85 177.25 329.38 178.24 328.81 179.44 328.28 180.12 327.73 180.44 326.47 180.94 325 181.48 323.58 182.05 321.21 183 320.18 183.41 319.53 183.63"/>
    <polygon class="cls-6" points="316.3 171.39 306.31 168.14 299.11 164.05 293.27 160.61 286.63 155.22 283.8 152.18 281.96 148.83 280.49 145.07 279.7 142.21 279.54 139.9 280.38 139.9 281.48 143.05 281.97 144.5 282.43 145.82 283.66 148.48 285.4 151.12 288.35 153.91 291.29 156.63 294.62 159.22 297.6 161.17 301.26 163.57 304.89 165.77 308.21 167.28 311.29 168.32 315.48 169.41 317.24 169.86 316.3 171.39"/>
    <path class="cls-5" d="m245.95,217.84c3.29,2.89,6.05,6.57,9.64,9.1h.4c5.82,4.04,16.87.25,20.89,7.37.85,3.07-6.61,5.74-9.84,6.07-2.69.28-9.45-.79-12.05-1.73-5.73-2.07-12.36-9.83-13.06-4.33-5.26-1.05-12.75-1.16-17.67-2.6-13.93-4.07-4.53-20.24,5.02-21.67,8.56-1.28,11.76,3.49,16.67,7.8Z"/>
    <path class="cls-12" d="m186.29,244.38l27.14-15.32c.15-.08,4.36-2.38,4.53-2.32l1.24,2.15,3.14,2.13-28.83,17.79c-.58.36-1.33.3-1.85-.16l-5.37-4.28Z"/>
    <path class="cls-12" d="m237.8,210.99l31.3-20.14,6.43-1.74.4,2.49c.15-.08,10.01-.12,10.17-.06l3.79.73-16.74,5.7-8.42,5.74-19.42,12.8c-.51.32-1.16-.47-1.67-.92l-5.86-4.6Z"/>
  </g>
  <g>
    <ellipse class="cls-1" cx="289.23" cy="347.6" rx="70.13" ry="57.79"/>
    <ellipse class="cls-8" cx="289.23" cy="350.05" rx="13.67" ry="10.77"/>
    <polyline class="cls-8" points="305.86 296.21 291.3 340.56 295.68 340.56 306.49 296.6"/>
    <polygon class="cls-8" points="313.9 298.77 295.68 340.56 298.39 342.06 313.9 298.77"/>
    <polygon class="cls-8" points="322.07 302.24 299.89 343.32 301.23 344.9 323.43 302.24 322.07 302.24"/>
    <polygon class="cls-8" points="302.04 346.33 340.37 315.4 341.61 316.48 302.04 346.33"/>
    <polygon class="cls-8" points="302.7 348.31 352.74 336.82 353.61 339.28 302.89 350.05 302.7 348.31"/>
    <polygon class="cls-8" points="302.7 352.61 352.99 356.2 352.37 359.07 302.7 352.61"/>
    <polygon class="cls-8" points="290.4 360.82 289.23 400.34 296.46 400.34 290.4 360.82"/>
    <polygon class="cls-8" points="308.17 398.14 295.68 359.55 298.89 357.67 336.61 384.23 330.75 388.51 323.43 392.75 314.41 396.5 308.17 398.14"/>
    <polyline class="cls-8" points="282.95 359.62 264 396.38 258.89 394.57 281.75 359.07 234.71 376.11 276.17 353.23"/>
    <polygon class="cls-8" points="275.56 350.05 225.64 358.57 224.49 353.23 275.56 350.05"/>
    <polygon class="cls-8" points="225.4 338.27 278.04 343.86 267.75 297.71 261.82 299.76 254.71 302.87 247 307.3 240.14 312.87 234.71 318.38 230.31 324.5 227.51 330.48 225.4 335.48 224.49 337.86 225.4 338.27"/>
    <polygon class="cls-8" points="282.14 340.56 275.56 332.73 278.04 343.86 282.14 340.56"/>
    <polygon class="cls-8" points="286.96 339.28 283.88 294.68 291.3 294.03 286.96 339.28"/>
    <ellipse class="cls-1" cx="74.13" cy="346.33" rx="70.13" ry="57.79"/>
    <ellipse class="cls-8" cx="74.13" cy="348.77" rx="13.67" ry="10.77"/>
    <polyline class="cls-8" points="90.76 294.94 76.2 339.28 80.58 339.28 91.39 295.33"/>
    <polygon class="cls-8" points="98.81 297.5 80.58 339.28 83.29 340.79 98.81 297.5"/>
    <polygon class="cls-8" points="106.97 300.97 84.79 342.04 86.14 343.63 108.33 300.97 106.97 300.97"/>
    <polygon class="cls-8" points="86.94 345.05 125.28 314.13 126.51 315.2 86.94 345.05"/>
    <polygon class="cls-8" points="87.61 347.04 137.64 335.54 138.51 338 87.79 348.77 87.61 347.04"/>
    <polygon class="cls-8" points="87.61 351.33 137.89 354.92 137.27 357.79 87.61 351.33"/>
    <polygon class="cls-8" points="75.3 359.55 74.13 399.07 81.37 399.07 75.3 359.55"/>
    <polygon class="cls-8" points="93.07 396.87 80.58 358.27 83.79 356.39 121.52 382.96 115.65 387.24 108.33 391.47 99.31 395.22 93.07 396.87"/>
    <polyline class="cls-8" points="67.86 358.34 48.9 395.11 43.79 393.29 66.66 357.79 19.61 374.83 61.07 351.95"/>
    <polygon class="cls-8" points="60.46 348.77 10.54 357.3 9.39 351.95 60.46 348.77"/>
    <polygon class="cls-8" points="10.3 336.99 62.95 342.59 52.65 296.44 46.72 298.48 39.61 301.6 31.9 306.02 25.04 311.59 19.61 317.11 15.21 323.23 12.42 329.21 10.3 334.21 9.39 336.58 10.3 336.99"/>
    <polygon class="cls-8" points="67.04 339.28 60.46 331.46 62.95 342.59 67.04 339.28"/>
    <polygon class="cls-8" points="71.86 338 68.78 293.4 76.2 292.75 71.86 338"/>
    <polygon class="cls-11" points="129.31 256.01 136.36 253 155.41 327.12 148.78 328.84 136.77 288.76 134.25 276.03 78.61 347.66 72.56 346.94 129.31 256.01"/>
    <polygon class="cls-10" points="260.22 252.13 265.19 271.1 165.15 360.3 75.46 354.27 89.1 347.66 150.23 347.66 159.14 346.94 195.98 310.43 246.97 263.71 139.26 264.31 136.36 253 260.22 252.13"/>
    <polyline class="cls-11" points="244.54 224.73 298.4 223.87 300.95 225.42 302.04 227.44 302.04 228.83 298.59 230.42 295.29 231.41 296.77 237.65 296.84 242.12 295.87 245.72 292.54 250.07 287.41 253.36 282.2 255.44 278.48 255.77 276.78 254.35 276.78 252.53 276.78 250.89 280.27 249.27 284.34 248.21 287.33 246.86 289.51 244.84 290.31 242.44 290.53 240.42 290.53 237.63 288.66 235.9 288.02 234.62 286.03 233.4 284.25 232.54 282.66 231.09 280.17 230.52 279.07 230.82 277.33 237.16 275.62 241.16 270.31 245.51 266.29 247.32 262.58 248.07 261.11 248 260.5 249.44 261.02 251.01 259.88 253.41 258.41 254.46 253.33 255.31 249.31 255.75 249.79 251.85 250.45 247.73 249.33 243.42 247.29 238.04 245.49 232.98 244.54 228.02 243.97 225.81"/>
    <polygon class="cls-11" points="265.19 271.1 256.99 278.41 283.88 351.33 286.63 354.31 289.23 354.31 291.3 353.23 291.3 350.05 265.19 271.1"/>
  </g>
  <ellipse class="cls-7" cx="158.07" cy="345.22" rx="19.77" ry="20.1"/>
</svg>